<?xml version="1.0" encoding="UTF-8" standalone="no"?><!DOCTYPE svg PUBLIC "-//W3C//DTD SVG 1.1//EN" "http://www.w3.org/Graphics/SVG/1.1/DTD/svg11.dtd"><svg width="100%" height="100%" viewBox="0 0 94 60" version="1.1" xmlns="http://www.w3.org/2000/svg" xmlns:xlink="http://www.w3.org/1999/xlink" xml:space="preserve" xmlns:serif="http://www.serif.com/" style="fill-rule:evenodd;clip-rule:evenodd;stroke-linejoin:round;stroke-miterlimit:2;"><ellipse cx="35.642" cy="42.623" rx="6.104" ry="1.179" style="fill:#fff;"/><g><path d="M7.475,41.158l0,-20.902l8.635,0c1.565,0 2.917,0.305 4.057,0.914c1.139,0.609 2.019,1.456 2.638,2.541c0.619,1.085 0.929,2.346 0.929,3.781c-0,1.443 -0.315,2.703 -0.945,3.782c-0.629,1.078 -1.525,1.913 -2.689,2.505c-1.163,0.592 -2.544,0.888 -4.143,0.888l-5.328,0l0,-3.98l4.389,-0c0.762,-0 1.4,-0.133 1.913,-0.398c0.514,-0.266 0.903,-0.638 1.169,-1.118c0.265,-0.479 0.398,-1.039 0.398,-1.679c-0,-0.646 -0.133,-1.206 -0.398,-1.679c-0.266,-0.472 -0.657,-0.838 -1.174,-1.097c-0.517,-0.258 -1.153,-0.388 -1.908,-0.388l-2.491,0l0,16.83l-5.052,0Z" style="fill:#fff;fill-rule:nonzero;"/><path d="M45.618,26.935c0,2.3 -0.442,4.249 -1.326,5.848c-0.885,1.599 -2.081,2.814 -3.588,3.644c-1.507,0.83 -3.196,1.245 -5.067,1.245c-1.878,-0 -3.569,-0.419 -5.072,-1.256c-1.504,-0.836 -2.696,-2.053 -3.578,-3.648c-0.881,-1.596 -1.321,-3.54 -1.321,-5.833c-0,-2.3 0.44,-4.249 1.321,-5.848c0.882,-1.599 2.074,-2.813 3.578,-3.643c1.503,-0.831 3.194,-1.246 5.072,-1.246c1.871,0 3.56,0.415 5.067,1.246c1.507,0.83 2.703,2.044 3.588,3.643c0.884,1.599 1.326,3.548 1.326,5.848Zm-5.164,0c0,-1.361 -0.192,-2.511 -0.576,-3.45c-0.385,-0.938 -0.936,-1.65 -1.654,-2.133c-0.718,-0.483 -1.58,-0.724 -2.587,-0.724c-1,-0 -1.861,0.241 -2.582,0.724c-0.721,0.483 -1.274,1.195 -1.659,2.133c-0.384,0.939 -0.576,2.089 -0.576,3.45c-0,1.361 0.192,2.511 0.576,3.45c0.385,0.939 0.938,1.65 1.659,2.133c0.721,0.483 1.582,0.724 2.582,0.724c1.007,0 1.869,-0.241 2.587,-0.724c0.718,-0.483 1.269,-1.194 1.654,-2.133c0.384,-0.939 0.576,-2.089 0.576,-3.45Z" style="fill:#fff;fill-rule:nonzero;"/><path d="M65.307,20.542l-0,20.902l-4.287,-0l-8.318,-12.064l-0.132,0l-0,12.064l-5.052,-0l-0,-20.902l4.347,0l8.226,12.043l0.174,0l-0,-12.043l5.042,0Z" style="fill:#fff;fill-rule:nonzero;"/><path d="M81.18,27.084c-0.116,-0.429 -0.286,-0.808 -0.511,-1.138c-0.224,-0.33 -0.5,-0.611 -0.826,-0.842c-0.327,-0.231 -0.701,-0.406 -1.123,-0.525c-0.422,-0.12 -0.884,-0.179 -1.388,-0.179c-1.014,-0 -1.89,0.245 -2.628,0.735c-0.738,0.49 -1.308,1.202 -1.709,2.138c-0.402,0.935 -0.603,2.07 -0.603,3.404c0,1.34 0.194,2.483 0.582,3.429c0.388,0.946 0.949,1.667 1.684,2.163c0.735,0.497 1.626,0.746 2.674,0.746c0.925,-0 1.71,-0.152 2.353,-0.455c0.643,-0.302 1.131,-0.733 1.464,-1.291c0.334,-0.558 0.5,-1.214 0.5,-1.969l0.939,0.112l-5.082,-0l-0,-3.685l9.012,0l-0,2.766c-0,1.871 -0.397,3.474 -1.189,4.807c-0.793,1.334 -1.882,2.358 -3.266,3.072c-1.385,0.715 -2.975,1.072 -4.772,1.072c-1.993,-0 -3.745,-0.432 -5.256,-1.296c-1.51,-0.864 -2.687,-2.098 -3.531,-3.7c-0.844,-1.602 -1.266,-3.506 -1.266,-5.71c0,-1.715 0.256,-3.237 0.766,-4.567c0.51,-1.331 1.223,-2.458 2.138,-3.384c0.915,-0.925 1.977,-1.626 3.184,-2.102c1.208,-0.476 2.509,-0.714 3.904,-0.714c1.211,-0 2.339,0.173 3.383,0.52c1.045,0.347 1.97,0.837 2.776,1.47c0.807,0.632 1.462,1.384 1.965,2.255c0.504,0.871 0.817,1.827 0.939,2.868l-5.113,0Z" style="fill:#fff;fill-rule:nonzero;"/></g></svg>