<?xml version="1.0" encoding="UTF-8" standalone="no"?>
<!DOCTYPE svg PUBLIC "-//W3C//DTD SVG 1.1//EN" "http://www.w3.org/Graphics/SVG/1.1/DTD/svg11.dtd">
<svg width="45px" height="65px" viewBox="0 0 40 65" version="1.1" xmlns="http://www.w3.org/2000/svg" xmlns:xlink="http://www.w3.org/1999/xlink" style="fill-rule:evenodd;clip-rule:evenodd;stroke-linejoin:round;stroke-miterlimit:2;">
    <g transform="matrix(1.67371,0,0,1.67371,-31.5787,-35.4578)">
        <path d="M18.867,60.021L18.867,21.185L21.534,21.185L21.534,23.985C21.756,23.585 22.012,23.207 22.301,22.852C22.767,22.296 23.334,21.88 24.001,21.602C24.667,21.324 25.345,21.185 26.034,21.185C26.945,21.185 27.801,21.402 28.601,21.835C29.401,22.268 30.04,22.874 30.517,23.652C30.995,24.43 31.329,25.257 31.517,26.135C31.706,27.013 31.801,27.896 31.801,28.785L31.801,31.785C31.801,32.674 31.706,33.557 31.517,34.435C31.329,35.313 30.995,36.141 30.517,36.918C30.04,37.696 29.401,38.302 28.601,38.735C27.801,39.168 26.945,39.385 26.034,39.385C25.345,39.385 24.667,39.246 24.001,38.968C23.334,38.691 22.767,38.274 22.301,37.718C22.012,37.363 21.756,36.985 21.534,36.585L21.534,60.021L18.867,60.021ZM25.234,36.985C25.834,36.985 26.412,36.835 26.967,36.535C27.523,36.235 27.962,35.818 28.284,35.285C28.606,34.752 28.829,34.185 28.951,33.585C29.073,32.985 29.134,32.385 29.134,31.785L29.134,28.785C29.134,28.185 29.073,27.585 28.951,26.985C28.829,26.385 28.606,25.818 28.284,25.285C27.962,24.752 27.523,24.335 26.967,24.035C26.412,23.735 25.834,23.585 25.234,23.585C24.634,23.585 24.067,23.741 23.534,24.052C23.001,24.363 22.59,24.785 22.301,25.318C22.012,25.852 21.812,26.413 21.701,27.002C21.59,27.591 21.534,28.185 21.534,28.785L21.534,31.785C21.534,32.385 21.59,32.98 21.701,33.568C21.812,34.157 22.012,34.718 22.301,35.252C22.59,35.785 23.001,36.207 23.534,36.518C24.067,36.83 24.634,36.985 25.234,36.985ZM20.534,28.752L20.534,28.618L20.534,28.752Z" style="fill-rule:nonzero;"/>
    </g>
    <g transform="matrix(-1.67371,-2.04971e-16,2.04971e-16,-1.67371,71.5787,100.458)">
        <path d="M18.867,60.021L18.867,21.185L21.534,21.185L21.534,23.985C21.756,23.585 22.012,23.207 22.301,22.852C22.767,22.296 23.334,21.88 24.001,21.602C24.667,21.324 25.345,21.185 26.034,21.185C26.945,21.185 27.801,21.402 28.601,21.835C29.401,22.268 30.04,22.874 30.517,23.652C30.995,24.43 31.329,25.257 31.517,26.135C31.706,27.013 31.801,27.896 31.801,28.785L31.801,31.785C31.801,32.674 31.706,33.557 31.517,34.435C31.329,35.313 30.995,36.141 30.517,36.918C30.04,37.696 29.401,38.302 28.601,38.735C27.801,39.168 26.945,39.385 26.034,39.385C25.345,39.385 24.667,39.246 24.001,38.968C23.334,38.691 22.767,38.274 22.301,37.718C22.012,37.363 21.756,36.985 21.534,36.585L21.534,60.021L18.867,60.021ZM25.234,36.985C25.834,36.985 26.412,36.835 26.967,36.535C27.523,36.235 27.962,35.818 28.284,35.285C28.606,34.752 28.829,34.185 28.951,33.585C29.073,32.985 29.134,32.385 29.134,31.785L29.134,28.785C29.134,28.185 29.073,27.585 28.951,26.985C28.829,26.385 28.606,25.818 28.284,25.285C27.962,24.752 27.523,24.335 26.967,24.035C26.412,23.735 25.834,23.585 25.234,23.585C24.634,23.585 24.067,23.741 23.534,24.052C23.001,24.363 22.59,24.785 22.301,25.318C22.012,25.852 21.812,26.413 21.701,27.002C21.59,27.591 21.534,28.185 21.534,28.785L21.534,31.785C21.534,32.385 21.59,32.98 21.701,33.568C21.812,34.157 22.012,34.718 22.301,35.252C22.59,35.785 23.001,36.207 23.534,36.518C24.067,36.83 24.634,36.985 25.234,36.985ZM20.534,28.752L20.534,28.618L20.534,28.752Z" style="fill-rule:nonzero;"/>
    </g>
    <g transform="matrix(1,0,0,1,-5.48787,2.47992)">
        <circle cx="26.135" cy="30.02" r="1.958"/>
    </g>
</svg>
