<?xml version="1.0" encoding="UTF-8" standalone="no"?>
<!DOCTYPE svg PUBLIC "-//W3C//DTD SVG 1.1//EN" "http://www.w3.org/Graphics/SVG/1.1/DTD/svg11.dtd">
<svg width="100%" height="100%" viewBox="0 0 1103 473" version="1.1" xmlns="http://www.w3.org/2000/svg" xmlns:xlink="http://www.w3.org/1999/xlink" xml:space="preserve" xmlns:serif="http://www.serif.com/" style="fill-rule:evenodd;clip-rule:evenodd;stroke-linejoin:round;stroke-miterlimit:2;">
    <g transform="matrix(1.33333,0,0,1.33333,0,0)">
        <g transform="matrix(0.757588,0,0,0.740869,-537.521,-615.049)">
            <ellipse cx="1120.15" cy="1225.39" rx="74.758" ry="14.764"/>
        </g>
        <g transform="matrix(1.07784,0,0,0.358943,-1004,-261.543)">
            <g transform="matrix(1,0,0,1,2.78335,0)">
                <path d="M974.865,1506.53L974.865,966.227L1049.19,966.227C1062.66,966.227 1074.31,974.098 1084.12,989.839C1093.93,1005.58 1101.5,1027.48 1106.83,1055.53C1112.16,1083.58 1114.82,1116.17 1114.82,1153.28C1114.82,1190.56 1112.11,1223.14 1106.7,1251.02C1101.28,1278.9 1093.56,1300.49 1083.55,1315.79C1073.53,1331.09 1061.64,1338.74 1047.88,1338.74L1002.01,1338.74L1002.01,1235.85L1039.79,1235.85C1046.35,1235.85 1051.84,1232.42 1056.27,1225.56C1060.69,1218.7 1064.04,1209.08 1066.33,1196.67C1068.61,1184.28 1069.75,1169.81 1069.75,1153.28C1069.75,1136.57 1068.61,1122.1 1066.33,1109.88C1064.04,1097.65 1060.67,1088.2 1056.22,1081.52C1051.77,1074.83 1046.29,1071.49 1039.79,1071.49L1018.35,1071.49L1018.35,1506.53L974.865,1506.53Z" style="fill:rgb(255,255,255);fill-rule:nonzero;"/>
            </g>
            <g transform="matrix(1,0,0,1,0,-97.5084)">
                <path d="M1306,1236.38C1306,1295.83 1302.19,1346.22 1294.58,1387.55C1286.97,1428.88 1276.67,1460.28 1263.7,1481.73C1250.73,1503.19 1236.18,1513.92 1220.08,1513.92C1203.91,1513.92 1189.36,1503.1 1176.41,1481.47C1163.47,1459.84 1153.2,1428.4 1145.62,1387.15C1138.03,1345.91 1134.24,1295.65 1134.24,1236.38C1134.24,1176.93 1138.03,1126.54 1145.62,1085.21C1153.2,1043.88 1163.47,1012.48 1176.41,991.026C1189.36,969.569 1203.91,958.84 1220.08,958.84C1236.18,958.84 1250.73,969.569 1263.7,991.026C1276.67,1012.48 1286.97,1043.88 1294.58,1085.21C1302.19,1126.54 1306,1176.93 1306,1236.38ZM1261.55,1236.38C1261.55,1201.2 1259.89,1171.48 1256.58,1147.21C1253.27,1122.94 1248.53,1104.56 1242.35,1092.07C1236.17,1079.58 1228.75,1073.34 1220.08,1073.34C1211.47,1073.34 1204.06,1079.58 1197.85,1092.07C1191.64,1104.56 1186.88,1122.94 1183.57,1147.21C1180.26,1171.48 1178.61,1201.2 1178.61,1236.38C1178.61,1271.56 1180.26,1301.28 1183.57,1325.55C1186.88,1349.82 1191.64,1368.2 1197.85,1380.69C1204.06,1393.18 1211.47,1399.42 1220.08,1399.42C1228.75,1399.42 1236.17,1393.18 1242.35,1380.69C1248.53,1368.2 1253.27,1349.82 1256.58,1325.55C1259.89,1301.28 1261.55,1271.56 1261.55,1236.38Z" style="fill:rgb(255,255,255);fill-rule:nonzero;"/>
            </g>
            <g transform="matrix(1,0,0,1,-8.95452,7.387)">
                <path d="M1484.44,966.227L1484.44,1506.53L1447.54,1506.53L1375.94,1194.7L1374.8,1194.7L1374.8,1506.53L1331.31,1506.53L1331.31,966.227L1368.73,966.227L1439.55,1277.54L1441.04,1277.54L1441.04,966.227L1484.44,966.227Z" style="fill:rgb(255,255,255);fill-rule:nonzero;"/>
            </g>
            <g transform="matrix(1,0,0,1,-17.6279,0)">
                <path d="M1629.76,1142.72C1628.76,1131.64 1627.3,1121.84 1625.37,1113.31C1623.43,1104.78 1621.06,1097.52 1618.25,1091.54C1615.44,1085.56 1612.22,1081.03 1608.59,1077.96C1604.95,1074.88 1600.97,1073.34 1596.64,1073.34C1587.91,1073.34 1580.37,1079.67 1574.01,1092.33C1567.66,1105 1562.75,1123.42 1559.3,1147.6C1555.84,1171.79 1554.11,1201.12 1554.11,1235.59C1554.11,1270.24 1555.78,1299.79 1559.12,1324.23C1562.46,1348.68 1567.29,1367.32 1573.62,1380.16C1579.94,1393 1587.62,1399.42 1596.64,1399.42C1604.6,1399.42 1611.35,1395.51 1616.89,1387.68C1622.42,1379.86 1626.63,1368.73 1629.5,1354.31C1632.37,1339.89 1633.8,1322.91 1633.8,1303.39L1641.88,1306.29L1598.13,1306.29L1598.13,1211.05L1675.71,1211.05L1675.71,1282.55C1675.71,1330.92 1672.3,1372.34 1665.48,1406.81C1658.65,1441.28 1649.28,1467.75 1637.36,1486.22C1625.44,1504.69 1611.75,1513.92 1596.29,1513.92C1579.12,1513.92 1564.04,1502.75 1551.04,1480.41C1538.04,1458.08 1527.9,1426.2 1520.64,1384.78C1513.38,1343.36 1509.75,1294.16 1509.75,1237.17C1509.75,1192.85 1511.94,1153.5 1516.34,1119.11C1520.73,1084.73 1526.86,1055.58 1534.74,1031.65C1542.62,1007.74 1551.76,989.619 1562.15,977.308C1572.55,964.996 1583.75,958.84 1595.76,958.84C1606.18,958.84 1615.89,963.325 1624.88,972.295C1633.88,981.265 1641.84,993.928 1648.78,1010.28C1655.72,1026.64 1661.36,1046.08 1665.69,1068.59C1670.03,1091.1 1672.72,1115.81 1673.78,1142.72L1629.76,1142.72Z" style="fill:rgb(255,255,255);fill-rule:nonzero;"/>
            </g>
        </g>
    </g>
</svg>
