<?xml version="1.0" encoding="UTF-8" standalone="no"?><!DOCTYPE svg PUBLIC "-//W3C//DTD SVG 1.1//EN" "http://www.w3.org/Graphics/SVG/1.1/DTD/svg11.dtd"><svg width="300px" height="100%" viewBox="0 0 1167 537" version="1.1" xmlns="http://www.w3.org/2000/svg" xmlns:xlink="http://www.w3.org/1999/xlink" xml:space="preserve" xmlns:serif="http://www.serif.com/" style="fill-rule:evenodd;clip-rule:evenodd;stroke-linecap:round;stroke-linejoin:round;stroke-miterlimit:1.5;"><rect x="0" y="97.166" width="1119.33" height="439.201" style="fill:#f15d51;"/><rect x="95.222" y="8.883" width="1062.18" height="421.599" style="fill:#fff;stroke:#231f20;stroke-width:17.77px;"/><ellipse cx="489.924" cy="373.871" rx="75.514" ry="14.584"/><g><path d="M141.462,355.752l0,-258.586l106.819,0c19.36,0 36.09,3.767 50.189,11.301c14.099,7.533 24.979,18.013 32.639,31.439c7.66,13.426 11.49,29.019 11.49,46.78c-0,17.845 -3.893,33.439 -11.68,46.781c-7.786,13.341 -18.876,23.674 -33.27,30.997c-14.394,7.323 -31.481,10.985 -51.262,10.985l-65.91,-0l0,-49.243l54.293,0c9.428,0 17.319,-1.641 23.675,-4.924c6.355,-3.283 11.174,-7.891 14.457,-13.826c3.283,-5.934 4.924,-12.857 4.924,-20.77c-0,-7.996 -1.641,-14.92 -4.924,-20.77c-3.283,-5.85 -8.123,-10.375 -14.52,-13.573c-6.398,-3.199 -14.268,-4.798 -23.612,-4.798l-30.808,-0l0,208.207l-62.5,-0Z" style="fill:#231f20;fill-rule:nonzero;"/><path d="M613.346,179.792c0,28.451 -5.471,52.568 -16.414,72.349c-10.943,19.781 -25.736,34.806 -44.381,45.076c-18.645,10.269 -39.542,15.404 -62.69,15.404c-23.232,-0 -44.149,-5.177 -62.752,-15.531c-18.603,-10.353 -33.355,-25.4 -44.255,-45.139c-10.901,-19.739 -16.351,-43.792 -16.351,-72.159c-0,-28.451 5.45,-52.567 16.351,-72.348c10.9,-19.781 25.652,-34.807 44.255,-45.076c18.603,-10.269 39.52,-15.404 62.752,-15.404c23.148,0 44.045,5.135 62.69,15.404c18.645,10.269 33.438,25.295 44.381,45.076c10.943,19.781 16.414,43.897 16.414,72.348Zm-63.889,0c0,-16.835 -2.378,-31.06 -7.134,-42.676c-4.755,-11.617 -11.574,-20.413 -20.454,-26.389c-8.881,-5.977 -19.55,-8.965 -32.008,-8.965c-12.373,0 -23.022,2.988 -31.944,8.965c-8.923,5.976 -15.762,14.772 -20.518,26.389c-4.756,11.616 -7.134,25.841 -7.134,42.676c0,16.835 2.378,31.061 7.134,42.677c4.756,11.616 11.595,20.413 20.518,26.389c8.922,5.976 19.571,8.965 31.944,8.965c12.458,-0 23.127,-2.989 32.008,-8.965c8.88,-5.976 15.699,-14.773 20.454,-26.389c4.756,-11.616 7.134,-25.842 7.134,-42.677Z" style="fill:#231f20;fill-rule:nonzero;"/><path d="M856.917,100.701l-0,258.586l-53.03,0l-102.904,-149.242l-1.642,-0l0,149.242l-62.5,0l0,-258.586l53.788,0l101.768,148.99l2.146,0l0,-148.99l62.374,0Z" style="fill:#231f20;fill-rule:nonzero;"/><path d="M1053.29,181.636c-1.431,-5.303 -3.536,-9.996 -6.314,-14.079c-2.777,-4.082 -6.186,-7.554 -10.227,-10.416c-4.04,-2.862 -8.67,-5.03 -13.889,-6.503c-5.219,-1.473 -10.942,-2.209 -17.171,-2.209c-12.542,-0 -23.38,3.03 -32.513,9.091c-9.133,6.06 -16.183,14.878 -21.149,26.452c-4.966,11.574 -7.449,25.61 -7.449,42.108c-0,16.583 2.398,30.724 7.196,42.424c4.798,11.701 11.743,20.623 20.834,26.768c9.091,6.145 20.118,9.217 33.081,9.217c11.447,0 21.149,-1.873 29.103,-5.618c7.955,-3.746 13.994,-9.07 18.119,-15.973c4.124,-6.902 6.187,-15.025 6.187,-24.368l11.616,1.389l-62.879,-0l0,-45.581l111.49,-0l-0,34.217c-0,23.148 -4.903,42.971 -14.71,59.47c-9.806,16.498 -23.274,29.166 -40.404,38.005c-17.129,8.838 -36.805,13.257 -59.027,13.257c-24.664,0 -46.339,-5.345 -65.026,-16.035c-18.687,-10.69 -33.249,-25.947 -43.687,-45.77c-10.437,-19.824 -15.656,-43.372 -15.656,-70.644c-0,-21.212 3.156,-40.047 9.47,-56.503c6.313,-16.456 15.13,-30.408 26.452,-41.856c11.321,-11.448 24.452,-20.118 39.394,-26.01c14.941,-5.892 31.039,-8.838 48.295,-8.838c14.983,-0 28.935,2.146 41.856,6.439c12.921,4.293 24.369,10.354 34.343,18.182c9.975,7.828 18.077,17.13 24.306,27.904c6.229,10.774 10.101,22.601 11.616,35.48l-63.257,-0Z" style="fill:#231f20;fill-rule:nonzero;"/></g></svg>